#!OML:ASF H:\ManfredETheater\Project 1\Capture day 1\Session 1\subject.ASF
:FULLY-SPECIFIED
:DEGREES
357
root -2.71684 17.1279 48.6932 1.37177 -1.14502 -0.637649
lowerback 3.19931 -0.599412 -2.07112
upperback -3.60592 -0.827547 1.93532
thorax -5.47722 -0.284084 3.23989
lowerneck -17.6661 -3.42079 -4.73752
upperneck 14.4331 -4.27418 4.53134
head 7.54499 -1.87297 1.76779
rclavicle 1.2921e-015 2.42517e-014
rhumerus -43.1565 -16.1113 -69.5667
rradius 35.6111
rwrist -1.38982
rhand -19.0612 -11.8071
rfingers 7.12502
rthumb 7.24612 -41.663
lclavicle 1.2921e-015 2.42517e-014
lhumerus -41.5722 7.77508 78.492
lradius 41.3268
lwrist -8.07018
lhand -11.0842 9.15807
lfingers 7.12502
lthumb 14.9394 38.5993
rfemur -11.1417 -1.92061 17.4282
rtibia 30.389
rfoot -15.5813 -10.9188
rtoes 7.59318
lfemur -9.7752 -4.14613 -18.1686
ltibia 32.7769
lfoot -18.8147 2.56866
ltoes -1.60829
358
root -2.75081 17.13 48.7109 1.46607 -1.01697 -0.812139
lowerback 3.11283 -0.631142 -1.95278
upperback -3.69155 -0.858505 2.00111
thorax -5.51604 -0.301137 3.24402
lowerneck -17.6264 -3.42747 -4.71711
upperneck 14.5836 -4.29762 4.53824
head 7.58869 -1.88232 1.76444
rclavicle -1.27968e-014 1.27222e-014
rhumerus -43.0712 -16.1334 -69.5444
rradius 35.6281
rwrist -1.41759
rhand -19.0917 -11.7598
rfingers 7.12502
rthumb 7.21668 -41.6167
lclavicle -1.27968e-014 1.27222e-014
lhumerus -41.7425 7.90317 78.5127
lradius 40.7685
lwrist -8.29542
lhand -10.8332 9.02311
lfingers 7.12502
lthumb 15.1811 38.4462
rfemur -11.0649 -1.89066 17.7555
rtibia 30.2358
rfoot -15.631 -11.0395
rtoes 7.64823
lfemur -9.81235 -4.31423 -17.855
ltibia 32.7604
lfoot -18.8701 2.62172
ltoes -1.66002
359
root -2.78367 17.1316 48.7282 1.55159 -0.884022 -0.985696
lowerback 3.03794 -0.66662 -1.82937
upperback -3.77078 -0.894516 2.0653
thorax -5.55456 -0.321094 3.24413
lowerneck -17.5869 -3.43473 -4.69776
upperneck 14.7126 -4.32041 4.54323
head 7.62533 -1.89165 1.76069
rclavicle -8.54774e-015 1.11319e-014
rhumerus -42.9848 -16.1669 -69.519
rradius 35.6508
rwrist -1.44898
rhand -19.1357 -11.7113
rfingers 7.12502
rthumb 7.17416 -41.5697
lclavicle -8.54774e-015 1.11319e-014
lhumerus -41.8905 8.05692 78.5218
lradius 40.1663
lwrist -8.56893
lhand -10.5866 8.87115
lfingers 7.12502
lthumb 15.4187 38.2761
rfemur -10.985 -1.88074 18.0756
rtibia 30.0885
rfoot -15.6796 -11.1434
rtoes 7.71452
lfemur -9.84702 -4.48705 -17.5481
ltibia 32.7529
lfoot -18.9298 2.67674
ltoes -1.67525
360
root -2.81578 17.133 48.7445 1.62964 -0.756174 -1.16446
lowerback 2.96679 -0.699004 -1.69708
upperback -3.8421 -0.926054 2.12911
thorax -5.58744 -0.339466 3.23841
lowerneck -17.5353 -3.44627 -4.68864
upperneck 14.814 -4.34705 4.55433
head 7.65133 -1.90308 1.76028
rclavicle -7.70291e-016 -2.38542e-015
rhumerus -42.9017 -16.2213 -69.4848
rradius 35.6775
rwrist -1.48701
rhand -19.1949 -11.6619
rfingers 7.12502
rthumb 7.11706 -41.5223
lclavicle -7.70291e-016 -2.38542e-015
lhumerus -42.0129 8.22866 78.523
lradius 39.5222
lwrist -8.89118
lhand -10.3426 8.71619
lfingers 7.12502
lthumb 15.6537 38.1029
rfemur -10.9087 -1.86611 18.399
rtibia 29.9504
rfoot -15.7262 -11.2467
rtoes 7.78933
lfemur -9.88209 -4.6593 -17.2389
ltibia 32.7537
lfoot -18.9918 2.73802
ltoes -1.6732
361
root -2.84679 17.1341 48.7599 1.70304 -0.63086 -1.33564
lowerback 2.90783 -0.731749 -1.56751
upperback -3.90857 -0.958607 2.18942
thorax -5.62226 -0.358404 3.23082
lowerneck -17.4984 -3.4596 -4.67802
upperneck 14.9106 -4.37456 4.55942
head 7.67815 -1.9152 1.75737
rclavicle 2.26118e-015 -1.23246e-014
rhumerus -42.8207 -16.2801 -69.4512
rradius 35.7123
rwrist -1.54066
rhand -19.2668 -11.6179
rfingers 7.12502
rthumb 7.04763 -41.4806
lclavicle 2.26118e-015 -1.23246e-014
lhumerus -42.1125 8.43089 78.5086
lradius 38.8409
lwrist -9.2635
lhand -10.1016 8.55936
lfingers 7.12502
lthumb 15.8858 37.9277
rfemur -10.8423 -1.86264 18.7087
rtibia 29.8272
rfoot -15.7704 -11.3362
rtoes 7.87653
lfemur -9.91858 -4.82845 -16.9428
ltibia 32.7579
lfoot -19.0537 2.80039
ltoes -1.6371
362
root -2.87694 17.1349 48.7745 1.76821 -0.515338 -1.49648
lowerback 2.85481 -0.760364 -1.44583
upperback -3.96784 -0.986452 2.24507
thorax -5.65328 -0.374983 3.22247
lowerneck -17.4596 -3.47665 -4.67037
upperneck 14.9945 -4.40581 4.5636
head 7.70071 -1.92944 1.7542
rclavicle 1.48592e-014 -1.66979e-014
rhumerus -42.7437 -16.3466 -69.4159
rradius 35.7499
rwrist -1.61144
rhand -19.3482 -11.5853
rfingers 7.12502
rthumb 6.96907 -41.4506
lclavicle 1.48592e-014 -1.66979e-014
lhumerus -42.1906 8.65906 78.4794
lradius 38.1288
lwrist -9.68824
lhand -9.85303 8.41615
lfingers 7.12502
lthumb 16.1252 37.7653
rfemur -10.7826 -1.85729 19.0034
rtibia 29.7194
rfoot -15.8145 -11.4165
rtoes 7.97771
lfemur -9.9519 -4.98431 -16.6621
ltibia 32.7656
lfoot -19.1158 2.86554
ltoes -1.60843
363
root -2.90579 17.1354 48.7883 1.8291 -0.401572 -1.63638
lowerback 2.80832 -0.787912 -1.3369
upperback -4.02442 -1.0141 2.29222
thorax -5.68526 -0.391192 3.2125
lowerneck -17.4279 -3.49714 -4.66377
upperneck 15.0798 -4.44047 4.5635
head 7.72502 -1.94565 1.74929
rclavicle 4.67144e-015 -2.78299e-015
rhumerus -42.676 -16.4101 -69.3816
rradius 35.7938
rwrist -1.70358
rhand -19.432 -11.571
rfingers 7.12502
rthumb 6.88815 -41.4389
lclavicle 4.67144e-015 -2.78299e-015
lhumerus -42.2568 8.91232 78.4334
lradius 37.398
lwrist -10.161
lhand -9.59668 8.29274
lfingers 7.12502
lthumb 16.372 37.6217
rfemur -10.7316 -1.87648 19.2675
rtibia 29.6283
rfoot -15.8611 -11.4716
rtoes 8.08614
lfemur -9.98426 -5.1329 -16.4103
ltibia 32.7733
lfoot -19.1762 2.92929
ltoes -1.59562
364
root -2.93411 17.1357 48.8012 1.88202 -0.305723 -1.7676
lowerback 2.77006 -0.808759 -1.24046
upperback -4.07413 -1.03375 2.33639
thorax -5.71519 -0.40311 3.20593
lowerneck -17.3956 -3.51997 -4.66548
upperneck 15.157 -4.47734 4.57098
head 7.74705 -1.9627 1.74797
rclavicle 6.31141e-015 -1.70955e-014
rhumerus -42.6096 -16.4714 -69.3503
rradius 35.8346
rwrist -1.81004
rhand -19.5206 -11.5651
rfingers 7.12502
rthumb 6.80265 -41.4358
lclavicle 6.31141e-015 -1.70955e-014
lhumerus -42.3058 9.18968 78.3711
lradius 36.6531
lwrist -10.6766
lhand -9.32539 8.19056
lfingers 7.12502
lthumb 16.6332 37.4978
rfemur -10.6867 -1.87594 19.5208
rtibia 29.551
rfoot -15.9128 -11.5262
rtoes 8.22142
lfemur -10.012 -5.26688 -16.1705
ltibia 32.7817
lfoot -19.2324 2.998
ltoes -1.60294
365
root -2.96105 17.1358 48.8137 1.92947 -0.212305 -1.87217
lowerback 2.73241 -0.827953 -1.16148
upperback -4.11779 -1.05277 2.37014
thorax -5.73908 -0.414394 3.19816
lowerneck -17.3702 -3.54635 -4.67113
upperneck 15.2359 -4.51779 4.57815
head 7.77112 -1.98159 1.74667
rclavicle -5.09386e-015 1.35174e-014
rhumerus -42.5445 -16.5252 -69.3232
rradius 35.8717
rwrist -1.92759
rhand -19.6105 -11.5675
rfingers 7.12502
rthumb 6.71581 -41.441
lclavicle -5.09386e-015 1.35174e-014
lhumerus -42.3406 9.48597 78.2939
lradius 35.9029
lwrist -11.2284
lhand -9.03972 8.11386
lfingers 7.12502
lthumb 16.9082 37.3978
rfemur -10.6446 -1.90847 19.7354
rtibia 29.4858
rfoot -15.9675 -11.5447
rtoes 8.36837
lfemur -10.034 -5.3951 -15.9663
ltibia 32.789
lfoot -19.2872 3.06397
ltoes -1.63516
366
root -2.98741 17.1358 48.8253 1.96929 -0.136643 -1.96936
lowerback 2.70446 -0.839732 -1.09187
upperback -4.15718 -1.06264 2.39983
thorax -5.76458 -0.420878 3.19089
lowerneck -17.3412 -3.57587 -4.68792
upperneck 15.3085 -4.56224 4.59879
head 7.79329 -2.0018 1.75121
rclavicle -1.46604e-015 -2.38542e-015
rhumerus -42.485 -16.5647 -69.3032
rradius 35.9061
rwrist -2.05243
rhand -19.6913 -11.5749
rfingers 7.12502
rthumb 6.63783 -41.4509
lclavicle -1.46604e-015 -2.38542e-015
lhumerus -42.3662 9.79245 78.2025
lradius 35.1555
lwrist -11.8078
lhand -8.7399 8.05346
lfingers 7.12502
lthumb 17.1968 37.3125
rfemur -10.6049 -1.92359 19.9401
rtibia 29.4301
rfoot -16.0272 -11.5609
rtoes 8.54743
lfemur -10.0508 -5.50435 -15.7712
ltibia 32.7968
lfoot -19.3378 3.12253
ltoes -1.67374
367
root -3.01266 17.1355 48.8365 2.00201 -0.0682835 -2.04836
lowerback 2.68556 -0.848836 -1.03613
upperback -4.19309 -1.07012 2.42216
thorax -5.79168 -0.425773 3.18371
lowerneck -17.3206 -3.60913 -4.71196
upperneck 15.3856 -4.61056 4.62334
head 7.81893 -2.02373 1.75765
rclavicle -1.73937e-015 8.34896e-015
rhumerus -42.4299 -16.5852 -69.2917
rradius 35.9386
rwrist -2.17608
rhand -19.7685 -11.5811
rfingers 7.12502
rthumb 6.56331 -41.4594
lclavicle -1.73937e-015 8.34896e-015
lhumerus -42.3857 10.1118 78.0965
lradius 34.4194
lwrist -12.4114
lhand -8.42212 8.01408
lfingers 7.12502
lthumb 17.5026 37.2462
rfemur -10.5638 -1.95659 20.118
rtibia 29.3831
rfoot -16.0924 -11.5509
rtoes 8.74621
lfemur -10.0592 -5.60171 -15.5997
ltibia 32.803
lfoot -19.3847 3.16989
ltoes -1.72025
